REM DIRINDEX 1
REM DIRNAME folder01
TITLE ""
FILE "Disk3Track09.mp3" MP3
  TRACK 01 AUDIO
    TITLE "1:cjc069_1060"
    INDEX 01 00:00:00
  TRACK 02 AUDIO
    TITLE "1:cjc069_1061"
    INDEX 01 00:05:18
  TRACK 03 AUDIO
    TITLE "1:cjc069_1062"
    INDEX 01 00:15:07
  TRACK 04 AUDIO
    TITLE "1:cjc069_1063"
    INDEX 01 00:25:72
  TRACK 05 AUDIO
    TITLE "1:cjc069_1064"
    INDEX 01 00:38:31
  TRACK 06 AUDIO
    TITLE "0:"
    INDEX 01 00:43:37
